<svg xmlns="http://www.w3.org/2000/svg" width="16" height="16" viewBox="0 0 16 16"><path d="M 4.3339844 2 C 4.1493209 2 4 2.1492807 4 2.3339844 L 4 3 L 2.5 3 A 0.50005001 0.50005001 0 0 0 1.9980469 3.5 L 1.9980469 13.5 A 0.50005001 0.50005001 0 0 0 2.5 14 L 12.5 14 A 0.50005001 0.50005001 0 0 0 13 13.5 L 13 3.5 A 0.50005001 0.50005001 0 0 0 12.5 3 L 11 3 L 11 2.3339844 C 11 2.1492807 10.85068 2 10.666016 2 L 10.333984 2 C 10.149321 2 10 2.1492807 10 2.3339844 L 10 3 L 5 3 L 5 2.3339844 C 5 2.1492807 4.8506791 2 4.6660156 2 L 4.3339844 2 z M 3 4 L 4.3339844 4 L 4.6660156 4 L 12 4 L 12 5 L 3 5 L 3 4 z M 3 6 L 12 6 L 12 13 L 3 13 L 3 6 z M 4 7 L 4 8 L 5 8 L 5 7 L 4 7 z M 6 7 L 6 8 L 7 8 L 7 7 L 6 7 z M 8 7 L 8 8 L 9 8 L 9 7 L 8 7 z M 10 7 L 10 8 L 11 8 L 11 7 L 10 7 z M 4 9 L 4 10 L 5 10 L 5 9 L 4 9 z M 6 9 L 6 10 L 7 10 L 7 9 L 6 9 z M 8 9 L 8 10 L 9 10 L 9 9 L 8 9 z M 10 9 L 10 10 L 11 10 L 11 9 L 10 9 z M 4 11 L 4 12 L 5 12 L 5 11 L 4 11 z M 6 11 L 6 12 L 7 12 L 7 11 L 6 11 z M 8 11 L 8 12 L 9 12 L 9 11 L 8 11 z " color="#000" font-family="sans-serif" font-weight="400" overflow="visible" style="line-height:normal;text-indent:0;text-align:start;text-decoration-line:none;text-decoration-style:solid;text-decoration-color:#000;text-transform:none;block-progression:tb;isolation:auto;mix-blend-mode:normal;marker:none"/></svg>