<svg xmlns="http://www.w3.org/2000/svg" width="48" height="48" viewBox="0 0 48 48"><path fill-rule="evenodd" d="M 24 0 A 23.999998 23.999998 0 0 0 0 24 A 23.999998 23.999998 0 0 0 24 48 A 23.999998 23.999998 0 0 0 48 24 A 23.999998 23.999998 0 0 0 24 0 z M 27.509766 10.261719 C 27.593961 10.257719 27.677946 10.273547 27.753906 10.310547 L 28.654297 10.742188 L 28.992188 10.742188 L 29 10.742188 C 29.1326 10.742188 29.258392 10.794672 29.351562 10.888672 L 34.351562 15.888672 C 34.358283 15.896672 34.364794 15.902109 34.371094 15.912109 L 34.380859 15.923828 C 34.388329 15.931828 34.395544 15.941172 34.402344 15.951172 C 34.411354 15.963172 34.419834 15.973328 34.427734 15.986328 L 34.429688 15.986328 L 34.4375 16.001953 C 34.44308 16.011953 34.448325 16.02025 34.453125 16.03125 L 34.457031 16.044922 L 34.458984 16.044922 C 34.463954 16.055922 34.468456 16.067125 34.472656 16.078125 L 34.476562 16.091797 C 34.484742 16.118797 34.490541 16.145828 34.494141 16.173828 L 34.496094 16.189453 C 34.497299 16.201453 34.499762 16.212609 34.5 16.224609 L 34.5 16.238281 C 34.500412 16.249281 34.500412 16.261438 34.5 16.273438 L 34.5 20.867188 L 36.648438 19.892578 C 36.77604 19.834578 36.933256 19.788828 37.091797 19.798828 C 37.250339 19.804528 37.410207 19.857541 37.546875 19.994141 C 37.820211 20.267341 37.766343 20.637278 37.650391 20.892578 L 36.394531 23.65625 C 36.215152 24.05085 35.94116 24.429925 35.605469 24.765625 L 35.328125 25.042969 C 35.238459 25.132569 35.141462 25.203438 35.044922 25.273438 L 36.341797 34.316406 C 36.380092 34.589206 36.190592 34.841859 35.917969 34.880859 L 34.5 35.083984 L 34.5 36.238281 C 34.499972 36.514381 34.276131 36.738281 34 36.738281 L 22.978516 36.738281 L 22.923828 36.748047 L 22.097656 37.542969 A 0.50005 0.50005 0 0 1 21.375 37.511719 L 20.953125 37.03125 L 16.121094 37.724609 C 15.848326 37.762909 15.595951 37.573481 15.556641 37.300781 L 15.476562 36.740234 L 14 36.740234 C 13.723869 36.740234 13.500028 36.516334 13.5 36.240234 L 13.5 22.970703 L 12.005859 12.558594 C 11.967565 12.285794 12.157063 12.033141 12.429688 11.994141 L 13.5 11.841797 L 13.5 11.240234 C 13.500028 10.964134 13.723869 10.740234 14 10.740234 L 21.121094 10.740234 L 21.132812 10.740234 L 21.169922 10.740234 L 27.5 10.265625 L 27.509766 10.265625 L 27.509766 10.261719 z M 14.5 11.746094 L 14.5 12.279297 L 14.5 22.947266 L 14.5 35.746094 L 15.908203 35.746094 L 19.824219 35.746094 L 19.378906 35.238281 A 0.50005 0.50005 0 0 1 19.414062 34.542969 L 21.345703 32.746094 L 15.5 32.746094 L 15.5 32.244141 L 15.5 31.744141 L 22.421875 31.744141 L 24.568359 29.746094 L 15.5 29.746094 L 15.5 28.746094 L 25.642578 28.746094 L 27.791016 26.746094 L 15.5 26.746094 L 15.5 25.746094 L 28.867188 25.746094 L 31.015625 23.746094 L 15.5 23.746094 L 15.5 23.244141 L 15.5 22.744141 L 31.998047 22.744141 C 32.016387 22.722141 32.026325 22.694828 32.046875 22.673828 L 32.873047 21.849609 C 33.065758 21.656909 33.27906 21.499934 33.5 21.365234 L 33.5 16.746094 L 29 16.746094 C 28.723869 16.746094 28.500028 16.522194 28.5 16.246094 L 28.5 11.746094 L 14.5 11.746094 z M 29.5 12.453125 L 29.5 15.746094 L 32.792969 15.746094 L 29.5 12.453125 z M 13.5 12.851562 L 13.064453 12.914062 L 13.5 15.945312 L 13.5 12.851562 z M 15.5 16.746094 L 16 16.746094 L 24 16.746094 L 24.5 16.746094 L 24.5 17.746094 L 24 17.746094 L 16 17.746094 L 15.5 17.746094 L 15.5 17.246094 L 15.5 16.746094 z M 15.5 19.746094 L 32 19.746094 L 32 20.746094 L 15.5 20.746094 L 15.5 19.746094 z M 36.46875 21.080078 L 34.193359 22.113281 C 34.002095 22.200181 33.777125 22.359641 33.580078 22.556641 L 32.898438 23.236328 L 34.255859 24.59375 C 34.345793 24.55965 34.489233 24.47555 34.621094 24.34375 L 34.898438 24.066406 C 35.157699 23.807206 35.364323 23.5098 35.482422 23.25 L 36.46875 21.080078 z M 32.212891 24 L 22.083984 33.425781 L 23.445312 34.859375 L 33.443359 25.230469 L 32.212891 24 z M 33.5 26.564453 L 31.234375 28.746094 L 32 28.746094 L 32 29.746094 L 30.197266 29.746094 L 28.123047 31.744141 L 32.5 31.744141 L 32.5 32.746094 L 27.082031 32.746094 L 23.96875 35.746094 L 33.5 35.746094 L 33.5 34.660156 L 33.5 26.564453 z M 34.5 28.519531 L 34.5 34.083984 L 35.28125 33.970703 L 34.5 28.519531 z M 21.351562 34.107422 L 20.451172 34.945312 L 21.78125 36.462891 L 22.726562 35.552734 L 21.351562 34.107422 z "/></svg>