<svg xmlns="http://www.w3.org/2000/svg" xmlns:xlink="http://www.w3.org/1999/xlink" width="500" zoomAndPan="magnify" viewBox="0 0 375 374.999991" height="500" preserveAspectRatio="xMidYMid meet" version="1.0"><defs><clipPath id="ae3d80a8ea"><path d="M 112.5 112.5 L 262.5 112.5 L 262.5 262.5 L 112.5 262.5 Z M 112.5 112.5 " clip-rule="nonzero"/></clipPath></defs><g clip-path="url(#ae3d80a8ea)"><path fill="#1f1c2f" d="M 246.089844 112.5 C 245.144531 112.5 244.214844 112.871094 243.53125 113.617188 L 240.1875 116.960938 C 240.0625 117.085938 239.8125 117.335938 239.691406 117.582031 C 238.699219 118.945312 238.824219 120.929688 240.0625 122.171875 L 246.136719 128.492188 C 247.5 129.980469 247.5 132.335938 246.136719 133.699219 L 220.972656 158.863281 C 219.484375 160.351562 217.128906 160.351562 215.761719 158.863281 C 214.277344 157.375 214.277344 155.019531 215.761719 153.65625 L 235.722656 133.699219 C 237.210938 132.210938 237.210938 129.980469 235.722656 128.492188 L 234.855469 127.621094 C 233.613281 126.382812 231.632812 126.136719 230.144531 127.128906 C 229.898438 127.253906 229.773438 127.375 229.527344 127.621094 L 191.960938 165.0625 C 191.21875 165.804688 190.847656 166.671875 190.847656 167.664062 C 190.847656 168.65625 191.21875 169.648438 191.960938 170.269531 L 196.546875 174.855469 L 198.90625 177.210938 C 200.144531 178.449219 200.515625 180.558594 199.523438 182.046875 C 198.160156 184.027344 195.433594 184.277344 193.824219 182.664062 L 191.960938 180.683594 L 186.878906 175.601562 C 186.011719 174.730469 184.773438 174.359375 183.53125 174.605469 C 182.292969 174.855469 181.300781 175.722656 180.804688 176.839844 L 172.128906 197.789062 C 171.507812 199.152344 171.878906 200.886719 172.871094 202.003906 C 173.863281 203.117188 175.476562 203.367188 176.839844 202.871094 L 197.914062 193.945312 C 198.285156 193.820312 198.78125 193.449219 199.152344 193.203125 L 209.691406 182.664062 L 261.261719 131.21875 C 262.003906 130.476562 262.378906 129.609375 262.378906 128.617188 C 262.378906 127.625 262.003906 126.632812 261.261719 126.011719 L 248.742188 113.617188 C 247.996094 112.871094 247.035156 112.5 246.089844 112.5 Z M 128.738281 118.699219 C 119.8125 118.699219 112.625 125.886719 112.625 134.8125 L 112.625 246.382812 C 112.625 255.308594 119.8125 262.5 128.738281 262.5 L 190.722656 262.5 C 192.832031 262.5 194.441406 260.886719 194.441406 258.78125 C 194.441406 256.671875 192.832031 255.0625 190.722656 255.0625 L 128.738281 255.0625 C 123.90625 255.0625 120.0625 251.21875 120.0625 246.382812 L 120.0625 134.8125 C 120.0625 129.980469 123.90625 126.136719 128.738281 126.136719 L 203.121094 126.136719 C 205.226562 126.136719 206.839844 124.523438 206.839844 122.417969 C 206.839844 120.308594 205.226562 118.699219 203.121094 118.699219 Z M 252.707031 155.886719 C 250.597656 155.886719 248.988281 157.5 248.988281 159.609375 L 248.988281 217.871094 L 227.914062 217.871094 C 218.988281 217.871094 211.796875 225.0625 211.796875 233.988281 L 211.796875 258.78125 C 211.796875 260.269531 212.664062 261.632812 214.152344 262.253906 C 214.523438 262.378906 215.019531 262.5 215.515625 262.5 C 216.507812 262.5 217.375 262.128906 218.121094 261.382812 L 255.308594 224.195312 C 256.054688 223.449219 256.425781 222.582031 256.425781 221.589844 L 256.425781 159.609375 C 256.425781 157.5 254.8125 155.886719 252.707031 155.886719 Z M 227.914062 225.308594 L 243.78125 225.308594 L 219.234375 249.855469 L 219.234375 233.988281 C 219.234375 229.152344 223.078125 225.308594 227.914062 225.308594 Z M 227.914062 225.308594 " fill-opacity="1" fill-rule="nonzero"/></g></svg>