<svg xmlns="http://www.w3.org/2000/svg" viewBox="0 0 32 32"><g data-name="2"><path d="M25.75,10a.6.6,0,0,0-.07-.3s0,0,0-.07a.79.79,0,0,0-.14-.18v0l-7-6-.12-.07-.09-.06A.87.87,0,0,0,18,3.26H7A.75.75,0,0,0,6.25,4V28a.75.75,0,0,0,.75.75H25a.76.76,0,0,0,.75-.75V10Zm-7-4.38L23,9.27H18.75Zm-11,21.6V4.76h9.5V10a.77.77,0,0,0,.22.53.75.75,0,0,0,.53.22h6.25V27.24Z"/><path d="M10.06 9.83h3.83a.75.75 0 0 0 0-1.5H10.06a.75.75 0 0 0 0 1.5zM21.94 12.31H10.06a.75.75 0 0 0 0 1.5H21.94a.75.75 0 0 0 0-1.5zM21.94 16.26H10.06a.75.75 0 1 0 0 1.5H21.94a.75.75 0 0 0 0-1.5zM21.94 20.23H10.06a.75.75 0 1 0 0 1.5H21.94a.75.75 0 0 0 0-1.5zM21.94 24H10.06a.75.75 0 1 0 0 1.5H21.94a.75.75 0 0 0 0-1.5z"/></g></svg>